<?xml version="1.0" encoding="UTF-8"?>
<!DOCTYPE svg PUBLIC "-//W3C//DTD SVG 1.1//EN" "http://www.w3.org/Graphics/SVG/1.1/DTD/svg11.dtd">
<svg xmlns="http://www.w3.org/2000/svg" version="1.1" width="1000px" height="1000px" style="shape-rendering:geometricPrecision; text-rendering:geometricPrecision; image-rendering:optimizeQuality; fill-rule:evenodd; clip-rule:evenodd" xmlns:xlink="http://www.w3.org/1999/xlink">
<g><path style="opacity:0.757" fill="#000000" d="M 714.5,41.5 C 791.834,41.3333 869.167,41.5 946.5,42C 952.362,42.0459 958.029,43.0459 963.5,45C 966.181,47.194 967.681,50.0273 968,53.5C 969.156,175.15 969.656,296.817 969.5,418.5C 969.656,540.183 969.156,661.85 968,783.5C 967.681,786.973 966.181,789.806 963.5,792C 959.057,793.94 954.39,794.94 949.5,795C 911.5,795.667 873.5,795.667 835.5,795C 831.442,794.66 827.442,793.993 823.5,793C 819.317,790.827 817.151,787.327 817,782.5C 816.667,777.167 816.333,771.833 816,766.5C 815.5,569.5 815.333,372.5 815.5,175.5C 792.831,175.667 770.164,175.5 747.5,175C 742.771,174.727 738.104,174.061 733.5,173C 731.714,172.215 730.214,171.049 729,169.5C 717.444,140.386 706.444,111.053 696,81.5C 692.044,70.247 691.711,58.9136 695,47.5C 696.214,45.9512 697.714,44.7845 699.5,44C 704.625,43.0747 709.625,42.2414 714.5,41.5 Z"/></g>
<g><path style="opacity:0.139" fill="#000000" d="M 483.5,42.5 C 493.369,42.3203 503.036,43.4869 512.5,46C 514.049,47.214 515.215,48.714 516,50.5C 517.03,54.7727 517.697,59.106 518,63.5C 518.667,86.8333 518.667,110.167 518,133.5C 517.869,138.694 516.869,143.694 515,148.5C 512.806,151.181 509.973,152.681 506.5,153C 392.344,156.664 299.51,202.497 228,290.5C 149.297,396.455 134.63,510.788 184,633.5C 189,643.5 194,653.5 199,663.5C 204.667,672.833 210.333,682.167 216,691.5C 217.972,702.158 217.972,712.825 216,723.5C 207.849,752.772 200.016,782.105 192.5,811.5C 224.19,803.494 255.857,795.327 287.5,787C 295.5,786.333 303.5,786.333 311.5,787C 314.376,787.438 317.043,788.438 319.5,790C 365.98,819.272 416.647,836.605 471.5,842C 518.167,842.482 564.834,842.982 611.5,843.5C 693.496,843.777 775.496,843.444 857.5,842.5C 890.516,842.388 923.516,842.888 956.5,844C 960.257,844.358 963.424,845.858 966,848.5C 967.869,853.306 968.869,858.306 969,863.5C 969.667,887.167 969.667,910.833 969,934.5C 968.697,938.894 968.03,943.227 967,947.5C 965.74,950.428 963.573,952.261 960.5,953C 954.564,954.139 948.564,954.805 942.5,955C 786.157,955.97 629.824,955.637 473.5,954C 407.342,950.627 344.675,934.127 285.5,904.5C 214.844,922.997 144.177,941.497 73.5,960C 65.5,960.667 57.5,960.667 49.5,960C 45,959.5 42.5,957 42,952.5C 41.1473,943.114 41.4806,933.781 43,924.5C 61.5853,856.989 80.0853,789.489 98.5,722C 38.7744,604.353 27.6078,482.186 65,355.5C 98.6886,252.556 160.855,171.723 251.5,113C 322.552,68.816 399.885,45.316 483.5,42.5 Z"/></g>
<g><path style="opacity:1" fill="#4bad4f" d="M 138.5,457.5 C 136.822,462.568 136.156,467.902 136.5,473.5C 133.176,557.055 154.509,633.555 200.5,703C 188.066,747.738 176.066,792.238 164.5,836.5C 209.518,823.995 254.684,811.995 300,800.5C 352.433,833.422 409.6,852.589 471.5,858C 631.166,858.5 790.833,858.667 950.5,858.5C 950.5,883.5 950.5,908.5 950.5,933.5C 796.5,933.667 642.5,933.5 488.5,933C 435.969,931.76 385.302,921.427 336.5,902C 320.428,895.211 304.595,888.045 289,880.5C 212.171,900.32 135.337,920.32 58.5,940.5C 78.5394,865.01 99.2061,789.677 120.5,714.5C 60.4549,606.607 46.6215,492.94 79,373.5C 123.409,233.758 213.909,137.258 350.5,84C 398.64,66.5384 448.307,58.0384 499.5,58.5C 499.5,83.1667 499.5,107.833 499.5,132.5C 381.523,135.074 285.689,182.074 212,273.5C 170.382,327.824 145.882,389.158 138.5,457.5 Z"/></g>
<g><path style="opacity:0.128" fill="#000000" d="M 334.5,278.5 C 350.536,278.134 366.536,278.634 382.5,280C 391.932,281.769 398.765,286.936 403,295.5C 417.511,328.851 431.178,362.517 444,396.5C 445.096,406.975 444.429,417.308 442,427.5C 434.437,442.718 424.937,456.551 413.5,469C 434.962,506.464 463.962,536.797 500.5,560C 516.18,569.67 532.347,578.503 549,586.5C 551.963,584.539 554.629,582.206 557,579.5C 566.817,567.862 576.15,555.862 585,543.5C 592.623,535.749 601.957,532.416 613,533.5C 623.305,533.535 633.139,535.701 642.5,540C 671.443,553.472 700.11,567.472 728.5,582C 733.592,586.024 736.759,591.191 738,597.5C 741.67,625.48 737.337,652.146 725,677.5C 709.494,696.984 689.994,711.15 666.5,720C 655.516,723.997 644.182,726.33 632.5,727C 604.89,729.414 577.89,726.414 551.5,718C 495.056,701.289 444.722,673.956 400.5,636C 354.962,595.483 316.462,549.317 285,497.5C 259.127,452.934 252.127,405.6 264,355.5C 271.387,329.555 285.22,307.722 305.5,290C 314.285,283.688 323.952,279.855 334.5,278.5 Z"/></g>
<g><path style="opacity:1" fill="#4bad4f" d="M 338.5,293.5 C 349.505,293.333 360.505,293.5 371.5,294C 376.668,294.834 380.835,297.334 384,301.5C 386.588,305.674 388.921,310.007 391,314.5C 401.943,341.995 413.276,369.328 425,396.5C 427.734,405.136 426.401,413.136 421,420.5C 413.349,433.444 404.016,445.111 393,455.5C 390.867,457.933 389.7,460.767 389.5,464C 409.012,504.866 437.345,538.532 474.5,565C 497.565,579.869 521.565,593.203 546.5,605C 551.768,606.068 556.768,605.401 561.5,603C 576.544,585.625 591.21,567.958 605.5,550C 607.702,548.978 610.035,548.478 612.5,548.5C 618.08,549.082 623.413,550.582 628.5,553C 658.844,566.922 688.677,581.755 718,597.5C 721.301,603.042 722.301,609.042 721,615.5C 720.79,647.108 707.29,670.941 680.5,687C 648.4,706.639 614.067,711.639 577.5,702C 505.252,683.061 442.919,647.394 390.5,595C 356.2,560.186 326.367,522.019 301,480.5C 288.541,458.327 280.541,434.66 277,409.5C 273.954,366.444 288.454,330.611 320.5,302C 326.208,298.31 332.208,295.477 338.5,293.5 Z"/></g>
<g><path style="opacity:0.867" fill="#367c39" d="M 138.5,457.5 C 138.218,463.021 137.551,468.354 136.5,473.5C 136.156,467.902 136.822,462.568 138.5,457.5 Z"/></g>
</svg>
